<svg xmlns="http://www.w3.org/2000/svg" viewBox="0 0 324.79 324.79"><defs><style>.cls-1{fill:#fff;}.cls-2{fill:red;}</style></defs><g id="Layer_2" data-name="Layer 2"><g id="Layer_2-2" data-name="Layer 2"><path class="cls-1" d="M65.53,76.48,42.09,53A161.89,161.89,0,0,0,0,154.65H33.15A128.93,128.93,0,0,1,65.53,76.48Z"/><path class="cls-1" d="M154.65,33.15V0A161.89,161.89,0,0,0,53,42.09L76.48,65.53A128.93,128.93,0,0,1,154.65,33.15Z"/><path class="cls-1" d="M271.75,42.09A161.89,161.89,0,0,0,170.14,0V33.15a128.93,128.93,0,0,1,78.17,32.38Z"/><path class="cls-1" d="M33.15,170.14H0A161.89,161.89,0,0,0,42.09,271.75l23.44-23.44A128.93,128.93,0,0,1,33.15,170.14Z"/><path class="cls-1" d="M291.64,154.65h33.15A161.89,161.89,0,0,0,282.7,53L259.26,76.48A129,129,0,0,1,291.64,154.65Z"/><path class="cls-1" d="M259.26,248.31l23.44,23.44a161.89,161.89,0,0,0,42.09-101.61H291.64A129,129,0,0,1,259.26,248.31Z"/><path class="cls-1" d="M170.14,291.64v33.15A161.89,161.89,0,0,0,271.75,282.7l-23.44-23.44A129,129,0,0,1,170.14,291.64Z"/><path class="cls-1" d="M53,282.7a161.89,161.89,0,0,0,101.61,42.09V291.64a129,129,0,0,1-78.17-32.38Z"/><rect class="cls-2" x="91.92" y="117.63" width="143.49" height="43.72"/><polygon class="cls-1" points="91.92 208.41 91.92 208.43 235.41 208.43 235.41 208.41 235.41 161.35 91.92 161.35 91.92 208.41"/></g></g></svg>