<?xml version="1.0" encoding="utf-8"?>
<!-- Generator: Adobe Illustrator 25.4.1, SVG Export Plug-In . SVG Version: 6.00 Build 0)  -->
<svg version="1.1" id="Layer_1" xmlns="http://www.w3.org/2000/svg" xmlns:xlink="http://www.w3.org/1999/xlink" x="0px" y="0px"
	 viewBox="0 0 30 30" style="enable-background:new 0 0 30 30;" xml:space="preserve">
<style type="text/css">
	.st0{fill:#FFFFFF;}
</style>
<g id="Layer_2_00000083056918877708224040000012449271156300675748_">
	<g id="Layer_2-2">
		<path class="st0" d="M29.9,19.8c-0.2-0.4-0.6-0.6-1.1-0.5l-0.5,0.2c2.4-7.6-1.9-15.7-9.5-18.1c-0.7-0.2-1.4-0.4-2.1-0.5
			c-0.6-0.1-1.1,0.3-1.2,0.9c0,0.1,0,0.1,0,0.2l0,0c0,0.5,0.4,1,0.9,1.1c5.9,1,10.3,6.1,10.4,12.1c0,1.3-0.2,2.5-0.6,3.7l0,0
			l-0.4-0.6c-0.3-0.4-0.8-0.5-1.2-0.2c-0.4,0.3-0.5,0.8-0.2,1.2l1.5,2.3c0,0,0.1,0.1,0.1,0.1l0,0c0.1,0.1,0.1,0.1,0.2,0.1h0.1h0.1
			c0.1,0,0.1,0,0.2,0h0.1c0,0,0.1,0,0.1,0l2.5-0.9C29.8,20.7,30.1,20.2,29.9,19.8z"/>
		<path class="st0" d="M11.3,13.3c-0.1,0.7,0.1,1.4,0.5,2c0.3,0.4,0.7,0.8,1.2,0.9c0.6,0.2,1.2,0.4,1.8,0.5h0.2
			c0.3,0.1,0.6,0.1,0.9,0.2c0.2,0.1,0.4,0.2,0.6,0.4c0.2,0.2,0.2,0.5,0.2,0.7l0,0c0,0.4-0.2,0.8-0.5,1.1c-0.4,0.3-0.9,0.4-1.4,0.4
			c-0.6,0-1.1-0.1-1.6-0.3c-0.5-0.2-1-0.5-1.4-0.8l-1,1.8c0.3,0.3,0.6,0.5,0.9,0.7c0.5,0.2,1,0.4,1.5,0.5c0.3,0.1,0.5,0.1,0.8,0.1
			v1.3h2.2v-1.4c0.3-0.1,0.6-0.1,0.9-0.3c0.6-0.2,1.1-0.7,1.4-1.2c0.3-0.6,0.5-1.2,0.5-1.9l0,0c0-0.7-0.1-1.3-0.4-1.9
			c-0.3-0.4-0.7-0.8-1.1-1c-0.5-0.2-1.1-0.4-1.7-0.5h-0.1h-0.1l0,0c-0.4-0.1-0.7-0.2-1.1-0.3c-0.2-0.1-0.5-0.2-0.6-0.4
			c-0.2-0.2-0.3-0.6-0.3-0.9l0,0c0-0.4,0.2-0.7,0.5-0.9c0.4-0.2,0.9-0.4,1.3-0.3c0.4,0,0.8,0.1,1.2,0.2c0.4,0.2,0.9,0.4,1.2,0.7
			l0.9-1.8c-0.3-0.3-0.7-0.5-1.1-0.6c-0.4-0.2-0.8-0.3-1.2-0.4h-0.3V8.4h-2.2v1.4c-0.3,0.1-0.6,0.2-0.8,0.3c-0.5,0.3-1,0.7-1.3,1.2
			C11.4,11.9,11.2,12.6,11.3,13.3L11.3,13.3z"/>
		<path class="st0" d="M2.2,15.2c0-4.8,2.8-9.1,7.1-11.1L9.1,4.7C9,5.2,9.3,5.6,9.7,5.7c0.4,0.1,0.9-0.2,1-0.6l0.6-2.6
			c0,0,0-0.1,0-0.1l0,0c0-0.1,0-0.2,0-0.2c0,0,0-0.1,0-0.1l-0.1-0.1l-0.1-0.1H11c0,0-0.1-0.1-0.1-0.1L8.4,0.4C8,0.2,7.5,0.4,7.3,0.8
			c-0.2,0.4,0,0.9,0.4,1.1l0.6,0.3C3.3,4.5,0,9.6,0,15.2c0,2.2,0.5,4.4,1.5,6.4c0.3,0.5,0.9,0.7,1.4,0.5C3,22,3,22,3.1,21.9l0,0
			c0.4-0.3,0.5-0.9,0.3-1.3C2.6,18.9,2.1,17.1,2.2,15.2z"/>
		<path class="st0" d="M24.4,24c-0.4-0.3-1-0.3-1.3,0.1c-4.1,4-10.3,4.6-15.1,1.6l0.8-0.1c0.5,0,0.8-0.4,0.8-0.9
			c0-0.5-0.4-0.8-0.9-0.8c0,0-0.1,0-0.1,0l-2.6,0.4H5.7H5.6c-0.1,0-0.1,0.1-0.2,0.1l-0.1,0.1l-0.1,0.1c0,0.1-0.1,0.1-0.1,0.2
			c0,0,0,0,0,0.1c0,0,0,0.1,0,0.1l-0.2,2.7c0,0.5,0.3,0.9,0.8,0.9c0,0,0,0,0,0c0.4,0,0.8-0.3,0.9-0.7c0,0,0,0,0,0v-0.6
			c5.6,3.7,13.1,3,17.9-1.7c0.4-0.4,0.5-1.1,0.1-1.5C24.5,24.1,24.5,24,24.4,24L24.4,24z"/>
	</g>
</g>
</svg>
