<?xml version="1.0" encoding="utf-8"?>
<!-- Generator: Adobe Illustrator 25.4.1, SVG Export Plug-In . SVG Version: 6.00 Build 0)  -->
<svg version="1.1" id="Layer_1" xmlns="http://www.w3.org/2000/svg" xmlns:xlink="http://www.w3.org/1999/xlink" x="0px" y="0px"
	 viewBox="0 0 30 30" style="enable-background:new 0 0 30 30;" xml:space="preserve">
<style type="text/css">
	.st0{fill:#FFFFFF;}
</style>
<g id="Layer_2_00000034081144071319204660000001986743988422542230_">
	<g id="Layer_2-2">
		<path class="st0" d="M23.6,0H6.7C3,0,0,3,0,6.7v16.7C0,27,3,30,6.7,30h16.9c3.7,0,6.7-3,6.7-6.7V6.7C30.3,3,27.3,0,23.6,0z
			 M2.5,23.3V6.7c0-2.3,1.9-4.1,4.1-4.1h7.2v25H6.7C4.4,27.5,2.5,25.6,2.5,23.3z M27.7,9.4v14c0,2.3-1.9,4.1-4.1,4.2h-7.1v-25h7.2
			c2.3,0,4.1,1.9,4.1,4.1L27.7,9.4z"/>
		<path class="st0" d="M19.4,11.5c-0.7,0-1.3,0.6-1.3,1.3c0,0,0,0,0,0v2.7c0.1,0.7,0.7,1.3,1.4,1.2c0.6-0.1,1.1-0.6,1.2-1.2v-2.7
			C20.7,12.1,20.1,11.5,19.4,11.5L19.4,11.5z"/>
		<path class="st0" d="M11,11.5c-0.7,0-1.3,0.6-1.3,1.3v2.7c0.1,0.7,0.7,1.3,1.4,1.2c0.6-0.1,1.1-0.6,1.2-1.2v-2.7
			C12.4,12.1,11.8,11.5,11,11.5C11,11.5,11,11.5,11,11.5z"/>
	</g>
</g>
</svg>
