<svg xmlns="http://www.w3.org/2000/svg" viewBox="0 0 29.37 26.89"><defs><style>.cls-1{fill:#fff;}</style></defs><g id="Layer_2" data-name="Layer 2"><g id="Layer_2-2" data-name="Layer 2"><path class="cls-1" d="M28.17,3H22a4.13,4.13,0,0,0-7.92,0H1.89a1.2,1.2,0,0,0-1.2,1.2h0a1.2,1.2,0,0,0,1.2,1.2H14.06a4.13,4.13,0,0,0,7.92,0h6.19a1.2,1.2,0,0,0,1.2-1.2h0A1.2,1.2,0,0,0,28.17,3ZM18,6.11a2,2,0,0,1-2-1.95A1.93,1.93,0,0,1,16.49,3,1.93,1.93,0,0,1,18,2.2,2,2,0,0,1,19.56,3,1.92,1.92,0,0,1,20,4.16a2,2,0,0,1-2,2Z"/><path class="cls-1" d="M27.49,21.53h-6.2a4.13,4.13,0,0,0-7.92,0H1.2A1.2,1.2,0,0,0,0,22.73H0a1.2,1.2,0,0,0,1.2,1.2H13.37a4.13,4.13,0,0,0,7.92,0h6.2a1.2,1.2,0,0,0,1.2-1.2h0A1.2,1.2,0,0,0,27.49,21.53ZM17.33,24.69a2,2,0,1,1,1.54-.76A1.94,1.94,0,0,1,17.33,24.69Z"/><path class="cls-1" d="M27.71,12.24H14.52a4.13,4.13,0,0,0-7.92,0H1.43a1.2,1.2,0,0,0-1.2,1.2h0a1.2,1.2,0,0,0,1.2,1.2H6.6a4.13,4.13,0,0,0,7.92,0H27.71a1.2,1.2,0,0,0,1.2-1.2h0A1.2,1.2,0,0,0,27.71,12.24ZM10.56,15.4a2,2,0,0,1-2-2,2,2,0,0,1,3.92,0,1.92,1.92,0,0,1-.42,1.2A2,2,0,0,1,10.56,15.4Z"/></g></g></svg>