<?xml version="1.0" encoding="utf-8"?>
<!-- Generator: Adobe Illustrator 25.4.1, SVG Export Plug-In . SVG Version: 6.00 Build 0)  -->
<svg version="1.1" id="Layer_1" xmlns="http://www.w3.org/2000/svg" xmlns:xlink="http://www.w3.org/1999/xlink" x="0px" y="0px"
	 viewBox="0 0 30 30" style="enable-background:new 0 0 30 30;" xml:space="preserve">
<style type="text/css">
	.st0{fill:#FFFFFF;}
</style>
<g id="Layer_2_00000034049902094819461600000001279974977325472146_">
	<g id="Layer_2-2">
		<path class="st0" d="M16.4,29.1c-0.5,0.8-1.6,1.1-2.4,0.6c-0.2-0.1-0.4-0.3-0.6-0.6C10.7,24.6,5,14.9,5,10.3c0-5.5,4.4-10,9.9-10
			c0,0,0,0,0.1,0H15c5.5,0,10.3,4.5,10,10C24.7,15,19.1,24.6,16.4,29.1z M15,2.8C10.9,2.7,7.4,6,7.4,10.1c0,0.1,0,0.1,0,0.2
			c0.1,3.5,4.1,10.5,6.8,15.1c0.2,0.4,0.7,0.5,1.1,0.3c0.1-0.1,0.2-0.2,0.3-0.3c1.9-3.3,6.8-12.1,6.9-15.1c0-4.1-3.2-7.5-7.3-7.5
			c0,0-0.1,0-0.1,0H15z M15,1.6L15,1.6L15,1.6z M15.1,14.4c-2,0-3.7-1.6-3.7-3.7s1.6-3.7,3.7-3.7s3.7,1.6,3.7,3.7c0,0,0,0,0,0
			C18.7,12.7,17.1,14.4,15.1,14.4L15.1,14.4z M15.1,9.5c-0.7,0-1.2,0.6-1.2,1.2c0,0.7,0.6,1.2,1.2,1.2c0.7,0,1.2-0.6,1.2-1.2
			c0,0,0,0,0,0C16.3,10.1,15.8,9.5,15.1,9.5L15.1,9.5z"/>
	</g>
</g>
</svg>
