<?xml version="1.0" encoding="utf-8"?>
<!-- Generator: Adobe Illustrator 25.4.1, SVG Export Plug-In . SVG Version: 6.00 Build 0)  -->
<svg version="1.1" id="Layer_1" xmlns="http://www.w3.org/2000/svg" xmlns:xlink="http://www.w3.org/1999/xlink" x="0px" y="0px"
	 viewBox="0 0 30 30" style="enable-background:new 0 0 30 30;" xml:space="preserve">
<style type="text/css">
	.st0{fill:#FFFFFF;}
</style>
<g id="Layer_2_00000129909890637993127030000003679402113257789875_">
	<g id="Layer_2-2">
		<path class="st0" d="M27.3,1.4H10.4C9,1.4,7.9,2.6,7.8,4v22c0,1.4,1.2,2.6,2.6,2.6l0,0h16.9c1.4,0,2.6-1.2,2.6-2.6V4
			C29.9,2.6,28.7,1.4,27.3,1.4z M27,26.4H11.2c-0.6,0-1-0.4-1-1V4.6c0-0.4,0.4-0.8,0.8-0.8c0,0,0,0,0,0h16.2c0.3,0,0.6,0.3,0.6,0.6
			c0,0,0,0,0,0v21.3C27.8,26.1,27.5,26.4,27,26.4C27,26.4,27,26.4,27,26.4z"/>
		<path class="st0" d="M13.8,8.7h10.5c0.6,0,1.1,0.5,1.1,1.1l0,0c0,0.6-0.5,1.1-1.1,1.1H13.8c-0.6,0-1.1-0.5-1.1-1.1l0,0
			C12.7,9.2,13.2,8.7,13.8,8.7z"/>
		<path class="st0" d="M13.8,13.7h10.5c0.6,0,1.1,0.5,1.1,1.1l0,0c0,0.6-0.5,1.1-1.1,1.1H13.8c-0.6,0-1.1-0.5-1.1-1.1l0,0
			C12.7,14.2,13.2,13.7,13.8,13.7z"/>
		<path class="st0" d="M13.8,18.6h6c0.6,0,1.1,0.5,1.1,1.1l0,0c0,0.6-0.5,1.1-1.1,1.1h-6c-0.6,0-1.1-0.5-1.1-1.1l0,0
			C12.7,19.1,13.2,18.6,13.8,18.6z"/>
		<path class="st0" d="M3.3,1.5C1.5,1.5,0,3,0,4.8v16.8c0,0.4,0.1,0.8,0.2,1.2l0,0l1.6,3.8c0.6,2.1,2.5,2.1,3,0L6.2,23
			c0.2-0.4,0.3-0.9,0.3-1.4V4.8C6.5,3,5.1,1.5,3.3,1.5z M4.4,21.6c0,0.6-0.5,1.1-1.1,1.1s-1.1-0.5-1.1-1.1V4.8
			c0-0.6,0.5-1.1,1.1-1.1s1.1,0.5,1.1,1.1V21.6z"/>
	</g>
</g>
</svg>
