<svg xmlns="http://www.w3.org/2000/svg" viewBox="0 0 324.79 324.79"><defs><style>.cls-1{fill:#fff;}</style></defs><g id="Layer_2" data-name="Layer 2"><g id="Layer_2-2" data-name="Layer 2"><path class="cls-1" d="M0,154.65H33.15a128.77,128.77,0,0,1,5.73-31.16L8.21,110.73A162,162,0,0,0,0,154.65Z"/><path class="cls-1" d="M65.53,76.48,42.09,53A162.66,162.66,0,0,0,15.51,92.63l30.62,12.74A129.71,129.71,0,0,1,65.53,76.48Z"/><path class="cls-1" d="M53,42.09,76.48,65.53A130.18,130.18,0,0,1,101.76,48L89.09,17.25A162.74,162.74,0,0,0,53,42.09Z"/><path class="cls-1" d="M154.65,33.15V0A162.12,162.12,0,0,0,107,9.5l12.63,30.65A128.88,128.88,0,0,1,154.65,33.15Z"/><path class="cls-1" d="M248.31,65.53l23.44-23.44A162.67,162.67,0,0,0,231.93,15.4L219.19,46A129.54,129.54,0,0,1,248.31,65.53Z"/><path class="cls-1" d="M170.14,0V33.15a128.88,128.88,0,0,1,30.92,5.65L213.82,8.13A161.83,161.83,0,0,0,170.14,0Z"/><path class="cls-1" d="M33.15,170.14H0a162,162,0,0,0,8.55,45l30.68-12.65A129.22,129.22,0,0,1,33.15,170.14Z"/><path class="cls-1" d="M42.09,271.75l23.44-23.44a130,130,0,0,1-18.87-27.83L16,233.13A162.72,162.72,0,0,0,42.09,271.75Z"/><path class="cls-1" d="M282.7,53,259.26,76.48A130.26,130.26,0,0,1,278,104l30.68-12.66A163,163,0,0,0,282.7,53Z"/><path class="cls-1" d="M291.64,154.65h33.15a162.06,162.06,0,0,0-8.67-45.29L285.44,122A129.12,129.12,0,0,1,291.64,154.65Z"/><path class="cls-1" d="M324.79,170.14H291.64a128.66,128.66,0,0,1-6.84,34.53l30.62,12.74A162.42,162.42,0,0,0,324.79,170.14Z"/><path class="cls-1" d="M259.26,248.31l23.44,23.44a162.43,162.43,0,0,0,25-36.41l-30.67-12.76A130.18,130.18,0,0,1,259.26,248.31Z"/><path class="cls-1" d="M271.75,282.7l-23.44-23.44a129.8,129.8,0,0,1-30.08,20l12.64,30.65A162.66,162.66,0,0,0,271.75,282.7Z"/><path class="cls-1" d="M170.14,291.64v33.15A162.34,162.34,0,0,0,212.71,317L200,286.31A129.45,129.45,0,0,1,170.14,291.64Z"/><path class="cls-1" d="M154.65,324.79V291.64a129.15,129.15,0,0,1-34.77-6.92l-12.73,30.61A161.87,161.87,0,0,0,154.65,324.79Z"/><path class="cls-1" d="M76.48,259.26,53,282.7a162.69,162.69,0,0,0,36.18,24.91L102,276.93A129.67,129.67,0,0,1,76.48,259.26Z"/><path class="cls-1" d="M110.42,115.07h19v94.65h-19Z"/><path class="cls-1" d="M231.1,162.53c0,28.61-19.66,47.19-49.9,47.19H148.11V115.07H181.2C211.44,115.07,231.1,133.78,231.1,162.53Zm-50.58,31.05c19.94,0,31.19-11.39,31.19-31.05s-11.25-31.46-31.19-31.46H167.1v62.51Z"/></g></g></svg>