<svg xmlns="http://www.w3.org/2000/svg" viewBox="0 0 126.19 255.89"><defs><style>.cls-1,.cls-4{fill:#0061af;}.cls-2{fill:#fff;}.cls-2,.cls-4{fill-rule:evenodd;}.cls-3{fill:none;stroke:#fff;stroke-width:1.51px;}</style></defs><g id="Layer_2" data-name="Layer 2"><g id="Layer_1-2" data-name="Layer 1"><rect class="cls-1" width="126.07" height="126.13"/><rect class="cls-1" y="129.75" width="61.12" height="61.16"/><rect class="cls-1" x="65.1" y="129.75" width="61.09" height="61.16"/><rect class="cls-1" y="194.73" width="61.12" height="61.16"/><rect class="cls-1" x="65.1" y="194.73" width="61.09" height="61.16"/><path class="cls-2" d="M50.37,102.74a21.13,21.13,0,0,0,2.12,2c3-3.35,6.55-9.58,15.82-9.37,4.53,2.76,14.23,11.84,23.83,1.6-4.64,1.61-10.18,3-17.74-1.89-4.5-1.3-10.74-2.46-16.27,1.68-4.08,2.52-4.08,3.2-7.76,6M74.4,94c2.37.63,19.35,7.57,25.77-5.32-5.82,4.39-9.12,3.63-17.85,4.45,5-3.86,4.75-4.37,7.63-10.21C85.73,86.42,82.85,91.05,74.4,94M87,91.29c3.44,0,17.06-.89,20.41-14.27-4.33,4.8-5.91,5.73-8.81,7.06S92.49,87,91,89c3.15-5,3.68-4.93,4.18-9,.77-5.3.64-6.08,1.55-7.3C94,76.55,92,79,90.89,83.85c-1.2,3.58-1.71,3.33-3.94,7.44m9-7.2c1.6-.68,16.74-8.71,14-19.41-1.57,4-1.17,4.78-4.47,7.44A24.07,24.07,0,0,0,99.57,79c1.81-6.49,1.41-11-.21-14.82A62.12,62.12,0,0,0,97.6,78.13c-.39,2.52-.66,1.58-1.7,6m13.45-33.57c.39,1.06,4.94,10.56-6.5,22.4-.42-5.55-1.5-8.6-2.31-10.17a46.29,46.29,0,0,1-1.11-9.94c2.66,5.7,4.81,8.06,5.38,13.37,2.58-8,3.26-7.17,4.54-15.66m-4.71,10.35c.64-1.59,7.19-13.94-.27-22.91a89.61,89.61,0,0,1,.38,16.69c-2-5.14-6-8.45-8.15-10.81,1.36,5.69,3.23,8.32,4.15,9.5a16.17,16.17,0,0,1,3.89,7.53M97.33,32.05c-.65-.64,6.36,2.08,5.88,9.1,0,4.51-.38,6.63.05,8.09-2.8-3.31-3.48-4.23-5.73-5.94-2.53-1.95-4.9-4.2-5.34-8a26.71,26.71,0,0,0,4.91,4.2c1.2,1.05,4.4,4,4.4,4.75-1.08-5.83-2.58-10.59-4.17-12.17m-9.56-4.84c-1.25-.44,2.41,1.84,4.27,5.15,2.27,4.07,6.64,7,6.91,7.36-.69-4.23-1.76-9.26-11.18-12.51m-12,75.53a21.13,21.13,0,0,1-2.12,2c-3-3.32-6.63-9.54-15.87-9.27C53.31,98.22,43.66,107.38,34,97.18c4.64,1.6,10.19,2.91,17.73-2,4.51-1.32,10.72-2.51,16.28,1.59,4.1,2.52,4.1,3.17,7.81,6M51.72,94.12c-2.37.67-19.3,7.7-25.79-5.16,5.83,4.37,9.13,3.59,17.86,4.37C38.77,89.5,39,89,36.12,83.15c4.23,3.43,7.15,8.08,15.6,11M39.15,91.49c-3.42,0-17-.78-20.49-14.17,4.38,4.77,5.94,5.69,8.86,7s6.1,2.9,7.54,4.9c-3.18-5-3.69-4.9-4.22-9-.79-5.29-.68-6.08-1.6-7.28,2.78,3.85,4.75,6.23,6,11.14,1.19,3.57,1.71,3.29,3.95,7.41m-9-7.16C28.58,83.68,13.37,75.74,16,65c1.59,4,1.2,4.77,4.49,7.42a23.37,23.37,0,0,1,6,6.89c-1.86-6.5-1.45-11,.14-14.84a63.54,63.54,0,0,1,1.85,13.89c.4,2.53.67,1.61,1.71,6M16.55,50.86c-.4,1-4.9,10.57,6.61,22.36.4-5.57,1.44-8.6,2.24-10.21a44.88,44.88,0,0,0,1.06-9.92c-2.64,5.69-4.77,8.09-5.3,13.37-2.63-7.93-3.3-7.15-4.61-15.6M21.3,61.18c-.66-1.6-7.27-13.91.13-22.91a91.33,91.33,0,0,0-.27,16.67c2-5.16,6-8.48,8.08-10.85-1.32,5.69-3.17,8.34-4.1,9.54a16.22,16.22,0,0,0-3.84,7.55m7.15-28.87c.66-.65-6.35,2.1-5.84,9.13,0,4.5.43,6.62,0,8.09,2.79-3.33,3.46-4.26,5.7-6,2.53-2,4.9-4.25,5.31-8.09a25,25,0,0,1-4.91,4.24c-1.19,1.06-4.37,4-4.37,4.77,1.06-5.83,2.51-10.59,4.11-12.18M38,27.39c1.26-.43-2.38,1.87-4.24,5.17-2.24,4.13-6.6,7-6.88,7.42.67-4.24,1.73-9.27,11.12-12.59"/><path class="cls-3" d="M95.85,58A32.75,32.75,0,1,1,63.1,25,32.84,32.84,0,0,1,95.85,58Z"/><path class="cls-3" d="M89.18,58A26.08,26.08,0,1,1,63.1,31.77,26.13,26.13,0,0,1,89.18,58Z"/><path class="cls-3" d="M82.7,58A19.61,19.61,0,1,1,63.1,38.27,19.64,19.64,0,0,1,82.7,58Z"/><path class="cls-3" d="M76,58A12.92,12.92,0,1,1,63.1,45,13,13,0,0,1,76,58Z"/><line class="cls-3" x1="62.93" y1="25.04" x2="62.93" y2="90.71"/><line class="cls-3" x1="30.1" y1="57.88" x2="95.74" y2="57.88"/><line class="cls-3" x1="39.8" y1="34.67" x2="86.87" y2="81.1"/><line class="cls-3" x1="86.54" y1="34.35" x2="40.12" y2="81.41"/><path class="cls-2" d="M47.86,71.35C48,67,47.42,62.75,45.38,62c-1.44-1.16-4.8-3.2-6,3.08-1.74-.59-7.15-.59-6.12,3,1.75,1.75,10.66,9,13.42,8.9,3.06-.73,5.26-.73,5.26-1.45-2.06-3.79-1.89-4.39-4.1-4.24"/><path class="cls-2" d="M75,34.29c-.14,1.89,1.31,3.65.58,6-.88-1.16-1.6-1.47-1.46.3,3.8,7,4.39,7,4.39,7s-.14,3.35,1.61,3.51c1.46,1.29,1.28,4.22-.6,3.47,0-2.33.16-2.62-1.74-2A4.73,4.73,0,0,0,73,49.46c-2.34.44-5,2.21-5.39,3.22-1.47-.88-1.31-1.32-1.31-1.32,2-1.74,1.31-3.06.71-2.92-.87.74-1.45.6-2,1.18a16.13,16.13,0,0,0-4.21.16c-.14-.89-.88.71-.88.71-.3.74-2.19,1.45-2.77.6-1.32-1.47-2-2.79-5.25-1.31-2.93,1.73-7.15,3.48-5.84,10.35a4.1,4.1,0,0,0,2.2-3.66c1.45-.29,2.33,1.75,1.45,2.93-1.32.73-3.5,2.47-1.17,2.47.87-1.32,2.48-1,3.79-.3a64,64,0,0,0,7.16,3.22c1.6.3,4.22,1.31,1.45,4.08a3.66,3.66,0,0,0-1.57,3.18c-.15,1-2.25,1.55-.23,4.17,1.62,1.45,5,3.44,6.65,3.27.23,1.9.87,3.43,3.57,5,1.77,1.11,2.92,2.12,3.8.51,2.71-2,4.1-4.75,4-7.08a14.57,14.57,0,0,1,1.19-1.75,4.62,4.62,0,0,0-2.36-2c1.11-1.75,1.39-1.21,2.75.54s2.34,1.07,2.54-.29c.26-1.08-.1-1.75-.5-1.35,0-.89-.57-.79-.87-.11-.87-.49-1.56-1-1.35-1.64s.09-1.66-1.46-1.77A1.74,1.74,0,0,0,75.19,71c-2.23-.1-4.57-.61-4.57-1.28a34.37,34.37,0,0,0,4.08.2c1-.49,1.37-3,1.37-4.68.59-1.65,2.25-1.65,4.38-1.45a5.26,5.26,0,0,0,3.4-.68c.68-.3.12-1.35-2.27-1.32-2.14-.39-2.55-2-1.88-3.29.23-4,.48-3.1,1.29-3.52,1-.74,2.2-1,1.76-3.07C82.46,48.17,81,46.85,80,46.4c-2.62-4.22-4.08-5.55-3.19-6.12a3.12,3.12,0,0,1,2.32,2.91c1.76,1.9,4.81,3.21,5.56,5.11,2.33-.58,3.34-1.17,2-3.36-1.47-2.34-3.22-4.66-4.1-5C81.14,36.91,80,35.15,79,34.58c.54-.26,2-1.3-.69-2A4.21,4.21,0,0,1,75,34.29"/><path class="cls-2" d="M55.46,59.38c-.67-.3.93-2,2-1.5s-.48,2.13-2,1.5"/><path class="cls-2" d="M69.19,66c.15.8-.81,1.2-.81,1.2-.23-1.12.64-2,.81-1.2"/><path class="cls-4" d="M61.15,63.47c-1.48-.57-1.62-.57.57-1.46,2.34-2.91-.57-3.78-1.6-2.61-.88,1.3-1.89.87-.88-.59-2.18-1.17,1.33-4.38,2.63-5.26.89-.42,1.6.3,3.95,2.2-.28,1.47.69,5,1,4.57.09-.53.12-.8,0-.19a.33.33,0,0,1,0,.19,6.31,6.31,0,0,1-.52,1.86c-1.38-.36-2.76-2.3-1.91,1.15a13.4,13.4,0,0,1-3.2.14"/><path class="cls-2" d="M67.85,70.18c-1,1.17-1.75.88-2.48.15a9.33,9.33,0,0,0-3.05.6c.29-1.32,2.6-2.64,3.05-2.06s2.48.74,4.38-1c0,1.45-.14,1.32-1.9,2.33"/><path class="cls-2" d="M72.73,50.89s-1.29-.07-.65-.64.81.32.65.64"/><polygon class="cls-2" points="72.96 67.3 72.89 66.25 74.03 66.49 74.17 67.2 72.96 67.3"/><path class="cls-2" d="M64.48,30.24s7,.84,5.54-.94c-1.41-1.19-3.67-.83-5.54.94"/><path class="cls-2" d="M19.65,143v22.33c0,8.39,3.83,11.95,9,11.95,5.66,0,9.38-3.67,9.38-11.95V143h5v22c0,11.56-6.23,16.25-14.61,16.25-7.9,0-13.85-4.35-13.85-16.09V143Z"/><path class="cls-2" d="M14.52,245.22a69,69,0,0,0,8.91.47c7.36,0,14.19-1.92,17.77-5.43s5.45-8.5,5.45-14.66a17.79,17.79,0,0,0-6.36-13.54C37,209,32,207.41,25,207.41a71.31,71.31,0,0,0-10.44.78Zm4.94-33.46a27.14,27.14,0,0,1,5.72-.49c10.33,0,15.4,5.54,15.34,14.51,0,10.18-5.68,16.05-16.13,16a32.17,32.17,0,0,1-4.93-.22V211.76"/><path class="cls-2" d="M83.68,245.69h4.88V230.6a17.07,17.07,0,0,0,4,.32c4.77,0,9-1.39,11.55-4.13a10.81,10.81,0,0,0,3-8,10.1,10.1,0,0,0-3.38-7.86c-2.25-2-5.78-3.14-10.62-3.14a50.07,50.07,0,0,0-9.37.79ZM88.56,212a29.12,29.12,0,0,1,4.6-.38c5.39,0,8.93,2.4,8.93,7.43s-3.54,8-9.49,8a17.37,17.37,0,0,1-4-.38V212"/><path class="cls-2" d="M79.77,181V143.34h5.28l11.8,19a98.48,98.48,0,0,1,6.58,12.24l.17-.07c-.44-5-.55-9.59-.55-15.39V143.34h4.49V181h-4.81L91,161.88a108.32,108.32,0,0,1-6.86-12.58l-.17.07c.28,4.75.34,9.27.34,15.53V181Z"/></g></g></svg>